<svg xmlns="http://www.w3.org/2000/svg" viewBox="0 0 256 256"><defs><linearGradient id="g" x1="35" y1="220" x2="220" y2="35" gradientUnits="userSpaceOnUse"><stop stop-color="#1750ff"/><stop offset=".55" stop-color="#19c9ff"/><stop offset="1" stop-color="#63efff"/></linearGradient></defs><rect width="256" height="256" rx="56" fill="#02050b"/><circle cx="137" cy="128" r="67" fill="none" stroke="url(#g)" stroke-width="25"/><path d="M70 48v120l43-38 31 25-74 63V91z" fill="url(#g)"/><path d="M38 194c35 27 91 23 142-2 27-13 49-31 67-54-12 36-47 67-83 81-54 22-103 13-126-25z" fill="url(#g)"/><path d="M198 57l5 10 10 5-10 5-5 10-5-10-10-5 10-5z" fill="#17e6ff"/></svg>